<?xml version="1.0" encoding="utf-8"?>
<!-- Generator: Adobe Illustrator 27.7.0, SVG Export Plug-In . SVG Version: 6.00 Build 0)  -->
<svg version="1.1" id="Layer_1" xmlns="http://www.w3.org/2000/svg" xmlns:xlink="http://www.w3.org/1999/xlink" x="0px" y="0px"
	 viewBox="0 0 259.6 64" style="enable-background:new 0 0 259.6 64;" xml:space="preserve">
<style type="text/css">
	.st0{fill:#002F66;}
	.st1{fill:#EC1C24;stroke:#F2F2F2;stroke-width:3.79;stroke-miterlimit:10;}
	.st2{fill:#EC1C24;}
	.st3{fill:#F2F2F2;}
	.st4{fill:#5B91A9;}
	.st5{fill:none;stroke:#002F66;stroke-width:0.38;stroke-miterlimit:10;}
</style>
<g id="Layer_2_00000163053107531900213430000014637690616742860711_">
	<g id="Layer_1-2">
		<path id="path16-2" class="st0" d="M56.5,41.9c-8.8-7.2-29.6-19-50-20.4l0,0c-11.4,0-3.2,11.2,7.5,15.4
			c-18.2-20,25.1-5.5,42.9,5.4L56.5,41.9z"/>
		<path id="path16-2-2" class="st1" d="M9.3,46.5c11.3-0.2,34.6-4.8,51-17l0,0c8.7-7.3-4.6-10.4-15.4-6.6
			c26.5,3.2-15.7,20.3-36.1,23.6L9.3,46.5z"/>
		<path id="path16-2-3" class="st2" d="M9.3,46.5c11.3-0.2,34.6-4.8,51-17l0,0c8.7-7.3-4.6-10.4-15.4-6.6
			c26.5,3.2-15.7,20.3-36.1,23.6L9.3,46.5z"/>
		<g id="path16-2-4">
			<path class="st3" d="M36.3,63.9l-2.9-0.7c1.3-8.2,1.7-20.4,0.9-31c-1-14.1-3.4-18.5-4.5-18.9c0,0-1.5-0.4-4.5,6.1l-2.5,5.4
				l-0.4-5.9c-0.6-8.8,3.3-17.8,8.2-18.8c1.6-0.4,4.7-0.1,6.8,5.6c6.5,21.5,2.4,46.4-1,57.8L36.3,63.9z"/>
		</g>
		<path id="path16-2-5" class="st4" d="M35,63c3.4-11.2,7.3-36,1-56.8l0,0C31.8-5.3,23,6.4,23.9,18.8c11.5-25,14.4,23.2,11,44.7
			L35,63z"/>
		<path class="st0" d="M87.8,47.8c-0.8,0.2-1.6,0.3-2.4,0.3c-6.6,0-9.9-5.5-9.9-16.6s3.3-16.6,9.9-16.5c0.8,0,1.6,0.1,2.4,0.3v3.5
			c-0.6-0.1-1.1-0.2-1.7-0.2c-3.8,0-5.6,4.3-5.7,12.9s1.9,13,5.8,13c0.5,0,1.1-0.1,1.6-0.2V47.8z"/>
		<path class="st0" d="M106.3,31.5c0,6.4-0.9,11-2.6,13.6c-1.2,1.9-3.3,3.1-5.6,3c-2.3,0.1-4.4-1.1-5.6-3c-1.7-2.7-2.6-7.2-2.6-13.6
			s0.9-11,2.6-13.6c1.2-1.9,3.3-3.1,5.6-3c2.3-0.1,4.4,1.1,5.6,3C105.4,20.5,106.3,25,106.3,31.5z M101.3,31.5c0-8.7-1.1-13-3.2-13
			s-3.2,4.3-3.2,13s1.1,13,3.2,13S101.3,40.1,101.3,31.5L101.3,31.5z"/>
		<path class="st0" d="M123.9,25c0.1,2.6-0.6,5.1-2,7.2c-0.8,1.3-1.9,2.4-3.2,3.2c1.7,1.8,3,4,3.8,6.3c0.7,2,1,4.1,1,6.2h-4.8
			c0.1-2-0.3-4-1.1-5.9c-0.7-1.6-1.7-3.1-2.9-4.3v10.2h-4.9V15.1h3.9c2.5-0.1,5.1,0.6,7.1,2.2C122.8,18.9,123.9,21.5,123.9,25z
			 M118.9,25c0-4.2-1.4-6.3-4.2-6.3v14.4c0.8-0.1,1.6-0.8,2.5-2C118.4,29.3,119,27.2,118.9,25L118.9,25z"/>
		<path class="st0" d="M142.4,47.8H140l-8.1-18.7v18.7h-4.8V15.1h2.4l8,18.8V15.1h4.8L142.4,47.8z"/>
		<path class="st0" d="M158.6,47.8h-11.8V37.1h-1.5v-3.6h1.5V15.1h11.9v3.6h-6.9v14.8h5.5v3.6h-5.5v7.2h6.9V47.8z"/>
		<path class="st0" d="M175.3,25c0.1,2.6-0.6,5.1-2,7.2c-0.8,1.3-1.9,2.4-3.2,3.2c1.7,1.8,3,3.9,3.9,6.2c0.7,2,1,4.1,1,6.2h-4.9
			c0-2-0.4-4-1.1-5.8c-0.7-1.6-1.7-3.1-2.9-4.3v10.2h-5V15.1h3.9c2.5-0.1,5.1,0.6,7.1,2.2C174.2,18.9,175.3,21.5,175.3,25z
			 M170.3,25c0-4.2-1.4-6.3-4.2-6.3v14.4c0.8-0.1,1.6-0.8,2.5-2C169.8,29.3,170.4,27.2,170.3,25L170.3,25z"/>
		<path class="st0" d="M190.7,39.6c0.1,2.5-0.9,4.8-2.7,6.5c-1.7,1.4-3.8,2.1-5.9,2c-1.7,0.1-3.4-0.3-4.9-1.2l1.7-3.2
			c1,0.5,2,0.7,3.1,0.7c0.9,0,1.8-0.3,2.5-1c0.9-0.9,1.3-2.2,1.2-3.4c0-2.3-1.3-5.2-4-8.7c-1.3-1.6-2.4-3.3-3.4-5.2
			c-0.7-1.4-1-2.9-1-4.4c-0.1-1.9,0.7-3.8,2.1-5c1.6-1.3,3.5-2,5.6-1.9c1.3-0.1,2.7,0.2,3.9,0.9l-1.7,3.1c-0.7-0.3-1.5-0.4-2.2-0.4
			c-0.7,0-1.5,0.3-2,0.8c-0.5,0.6-0.8,1.3-0.8,2.1c0,1.2,0.4,2.4,1.1,3.5c0.8,1.4,1.7,2.7,2.7,3.9c1.3,1.7,2.5,3.5,3.5,5.3
			C190.3,35.8,190.7,37.7,190.7,39.6z"/>
		<path class="st0" d="M206.5,18.7h-4.8v29.2h-5V18.7h-4.8v-3.6h14.6L206.5,18.7z"/>
		<path class="st0" d="M224.5,31.5c0,6.4-0.9,11-2.6,13.6c-1.2,1.9-3.3,3.1-5.6,3c-2.3,0.1-4.4-1.1-5.6-3c-1.7-2.7-2.6-7.2-2.6-13.6
			s0.9-11,2.6-13.6c1.2-1.9,3.3-3.1,5.6-3c2.3-0.1,4.4,1.1,5.6,3C223.6,20.5,224.5,25,224.5,31.5z M219.6,31.5c0-8.7-1.1-13-3.2-13
			c-2.1,0-3.2,4.3-3.2,13s1.1,13,3.2,13C218.5,44.5,219.6,40.1,219.6,31.5z"/>
		<path class="st0" d="M243.3,47.8h-2.4l-8.1-18.7v18.7h-4.8V15.1h2.4l8,18.8V15.1h4.8L243.3,47.8z"/>
		<path class="st0" d="M259.6,47.8h-11.9V37.1h-1.5v-3.6h1.5V15.1h11.9v3.6h-6.9v14.8h5.5v3.6h-5.5v7.2h6.9L259.6,47.8z"/>
		<path class="st2" d="M107.6,61.3c1.2,0.4,2.4,0.7,3.6,0.7c1.8,0,2.7-0.6,2.7-1.4s-0.8-1.2-2.7-1.7c-2.5-0.6-4-1.5-4-3
			c0-1.7,2-3,5.3-3c1.2,0,2.4,0.1,3.6,0.5l-0.7,1.5c-1-0.3-2-0.5-3-0.5c-1.7,0-2.5,0.7-2.5,1.2c0,0.8,0.9,1.2,2.9,1.7
			c2.6,0.7,3.9,1.6,3.9,3.1c0,1.7-1.8,3.1-5.7,3.1c-1.4,0-2.8-0.2-4.1-0.7L107.6,61.3z"/>
		<path class="st2" d="M138.9,63c-1.3,0.4-2.6,0.5-3.9,0.5c-4.8,0-7.7-2.1-7.7-5.2c0-3.4,3.4-5.5,8-5.5c1.2,0,2.5,0.1,3.6,0.5
			l-0.6,1.5c-1-0.3-1.9-0.4-2.9-0.4c-3.1,0-5.3,1.3-5.3,3.8c0,2.3,1.9,3.8,5.2,3.8c1,0,2-0.1,3-0.4L138.9,63z"/>
		<path class="st2" d="M152.9,52.9v4.2h6.4v-4.2h2.8v10.4h-2.7v-4.6h-6.4v4.6h-2.7V52.9H152.9z"/>
		<path class="st2" d="M187.3,58c0,3.5-3.1,5.5-7.2,5.5s-6.9-2.2-6.9-5.3s2.9-5.5,7.1-5.5C184.8,52.8,187.3,55,187.3,58z
			 M176.1,58.2c0,2.1,1.5,3.8,4.2,3.8c2.1-0.2,3.7-2,3.5-4.2s-2-3.7-4.2-3.5C177.7,54.4,176.1,56.1,176.1,58.2z"/>
		<path class="st2" d="M211.9,58c0,3.5-3.1,5.5-7.2,5.5s-6.9-2.2-6.9-5.3s2.9-5.5,7.1-5.5C209.4,52.8,211.9,55,211.9,58z
			 M200.7,58.2c0,2.1,1.5,3.8,4.2,3.8c2.1-0.2,3.7-2,3.5-4.1c-0.2-2.1-2-3.7-4.1-3.5C202.3,54.4,200.7,56.1,200.7,58.2z"/>
		<path class="st2" d="M223.2,52.9h2.8v8.8h6.2v1.6h-8.9L223.2,52.9z"/>
		<line class="st5" x1="142.4" y1="6.4" x2="78.1" y2="6.4"/>
		<line class="st5" x1="258.7" y1="6.4" x2="191.6" y2="6.4"/>
		<path class="st0" d="M151.9,2.9h-4.3V1.3H159v1.6h-4.3v8.8h-2.7L151.9,2.9z"/>
		<path class="st0" d="M163.5,1.3v4.2h6.4V1.3h2.7v10.4h-2.7V7.1h-6.4v4.6h-2.7V1.3H163.5z"/>
		<path class="st0" d="M184.1,7.1h-5.6v3.1h6.3v1.6h-9.1V1.3h8.7v1.6h-6v2.7h5.6L184.1,7.1z"/>
	</g>
</g>
</svg>
