<svg width="1165" height="488" viewBox="0 0 1165 488" fill="none" xmlns="http://www.w3.org/2000/svg">
<path opacity="0.05" d="M640.769 173.975C648.23 166.055 655.816 157.097 663.526 147.103C664.785 145.49 666.3 143.736 668.189 141.841C669.717 140.121 671.66 138.825 673.832 138.076L689.85 133.071L692.019 124.161H621.392L619.387 133.071L637.411 138.871C638.297 139.245 639.113 139.526 639.743 139.76C640.481 139.987 641.198 140.277 641.888 140.625C640.457 145.057 638.591 149.334 636.315 153.394C633.867 157.749 631.1 161.915 628.038 165.86C625.38 169.274 622.582 172.618 619.574 175.846L581.078 130.429L617.802 112.959C623.309 108.114 627.559 101.998 630.183 95.1377C632.577 89.3527 633.904 83.1799 634.1 76.9194C634.268 73.0981 633.656 69.2827 632.301 65.7073C630.946 62.132 628.876 58.8724 626.219 56.1285C620.753 50.781 614.046 46.8828 606.703 44.7858C599.089 42.4703 591.178 41.2883 583.223 41.2778C575.463 41.3042 567.743 42.398 560.279 44.5286C552.665 46.6073 545.437 49.9086 538.874 54.3043C532.547 58.4971 527.162 63.9696 523.065 70.3711C518.942 77.023 516.835 84.7341 517.003 92.5652C516.962 97.26 517.924 101.909 519.824 106.2C521.632 110.336 523.892 114.258 526.563 117.893C529.143 121.401 531.568 124.519 533.838 127.248L537.079 131.224L504.762 148.834C500.833 152.501 497.533 156.792 494.992 161.533C492.178 166.637 489.904 172.022 488.207 177.6C486.567 182.751 485.702 188.119 485.642 193.526C485.391 202.014 487.841 210.361 492.637 217.357C497.243 223.873 503.553 228.988 510.871 232.138C518.624 235.468 526.99 237.125 535.423 237.002C545.943 237.129 556.388 235.207 566.178 231.343C575.5 227.527 584.312 222.562 592.41 216.562C595.441 214.333 598.433 212.041 601.387 209.687L606.609 216.095C610.014 220.234 612.882 223.532 615.167 226.011C617.342 228.42 620.095 230.231 623.164 231.273C627.459 232.46 631.91 232.981 636.362 232.816H676L677.889 224.046L659.002 217.568C656.855 216.765 654.872 215.577 653.15 214.06C650.815 212.114 648.675 209.945 646.761 207.582L628.574 186.253C632.787 182.23 636.851 178.138 640.769 173.975ZM558.134 71.7977C560.296 67.3764 563.497 63.5481 567.461 60.6421C571.412 57.7348 576.201 56.1994 581.101 56.2688C583.689 56.0932 586.281 56.5555 588.651 57.6154C591.02 58.6752 593.095 60.3005 594.695 62.3494C597.834 66.5441 599.477 71.6756 599.358 76.9194C599.559 86.2035 596.905 95.3245 591.757 103.043C586.819 110.146 580.286 115.987 572.684 120.092C568.02 114.315 564.22 109.287 561.258 105.054C557.171 99.5252 554.913 92.8518 554.8 85.9701C554.784 81.0487 555.927 76.1931 558.134 71.7977ZM590.777 200.706C585.415 204.275 579.626 207.15 573.546 209.266C567.067 211.461 560.263 212.536 553.424 212.446C549.64 212.618 545.866 211.928 542.386 210.43C538.905 208.931 535.808 206.662 533.325 203.793C528.326 197.944 525.66 190.447 525.84 182.745C525.815 177.08 526.704 171.449 528.475 166.07C530.192 160.88 532.617 155.953 535.68 151.43C538.308 147.508 541.445 143.953 545.007 140.859L592.829 199.326C592.176 199.771 591.384 200.238 590.777 200.706ZM0 484.435V462.639C10.1195 462.078 20.0524 461.984 29.8688 460.862C49.1518 458.64 58.5251 450.641 62.8154 431.768C65.402 421.183 66.8173 410.344 67.0358 399.448C67.3622 292.694 67.4399 185.933 67.2689 79.1645C67.2689 78.767 67.2689 78.3928 67.2689 77.9952C65.7767 35.8988 54.2815 24.2054 12.5911 22.4514L0.419702 21.8901V0.0935317H255.156V22.6852C245.666 22.6852 236.502 22.1707 227.175 22.6852C208.149 23.9481 197.983 32.344 193.226 50.7495C191.032 58.2291 189.756 65.9492 189.426 73.7388C189.052 112.257 189.239 150.915 189.239 190.229H347.793C348.504 189.086 348.987 187.815 349.216 186.487C348.819 146.378 349.216 106.223 347.513 66.1614C346.231 36.2964 333.337 25.0006 303.375 22.8723C296.38 22.3812 289.571 22.1474 281.947 21.7732V0H536.939V22.3578C528.825 22.3578 520.804 22.1006 512.829 22.3578C489.186 23.2699 476.992 33.4432 473.307 56.9938C470.998 71.2041 469.859 85.581 469.903 99.9788C470.37 142.379 470.37 184.85 473.284 227.11C475.173 254.402 488.673 264.084 515.907 264.318C527.915 264.435 539.947 264.318 553.028 264.318V286.583C536.169 288.617 519.195 289.903 502.523 292.85C469.18 298.72 439.428 313.898 410.212 330.269C383.701 345.167 356.584 358.778 325.362 360.041C311.139 360.602 296.869 360.041 281.853 360.041V338.384C291.973 337.8 301.906 337.543 311.792 336.56C332.031 334.549 340.565 326.738 345.042 306.765C346.043 302.601 346.768 298.374 347.21 294.113C348.026 284.758 348.493 275.567 349.169 265.324H188.47C188.47 278.28 188.33 290.675 188.47 303.07C189.052 341.612 188.47 380.247 190.801 418.648C192.9 451.086 205.887 461.119 238.414 461.493C243.777 461.493 249.163 461.493 255.249 461.493V484.435H0ZM909.611 484.435V461.75C915.697 461.75 921.083 461.75 926.446 461.75C958.973 461.376 971.984 451.343 974.059 418.905C976.53 380.504 975.877 341.869 976.39 303.328C976.6 290.933 976.39 278.538 976.39 265.581H815.808C816.484 275.825 816.95 285.109 817.766 294.37C818.209 298.631 818.933 302.858 819.935 307.023C824.412 326.995 832.946 334.806 853.185 336.818C863.071 337.8 873.004 338.057 883.123 338.642V360.298C868.107 360.298 853.837 360.766 839.614 360.298C808.393 359.035 781.322 345.424 754.764 330.527C725.548 314.156 695.796 298.907 662.453 293.108C645.782 290.161 628.807 288.875 611.949 286.84V264.576C625.053 264.576 637.061 264.576 649.093 264.576C676.303 264.342 689.827 254.66 691.692 227.367C694.607 185.107 694.607 142.636 695.073 100.236C695.121 85.7674 693.975 71.3196 691.646 57.0406C687.962 33.49 675.767 23.3167 652.147 22.4046C644.15 22.1006 636.129 22.4046 628.014 22.4046V0.0467837H883.1V21.8199C875.475 22.1941 868.574 22.428 861.672 22.9191C831.71 25.0473 818.816 36.3432 817.533 66.2082C815.784 106.27 816.227 146.425 815.831 186.534C816.059 187.861 816.542 189.132 817.253 190.276H975.807C975.807 150.845 976.017 112.304 975.621 73.7856C975.291 65.996 974.014 58.2759 971.82 50.7963C967.157 32.4844 956.898 24.0885 937.871 22.732C928.661 22.124 919.404 22.732 909.891 22.732V0.0935317H1164.58V21.8199L1152.41 22.3812C1110.74 24.0884 1099.22 35.7819 1097.73 77.925C1097.73 78.3226 1097.73 78.6968 1097.73 79.0943C1097.73 185.863 1097.81 292.663 1097.96 399.494C1098.18 410.391 1099.6 421.23 1102.18 431.815C1106.47 450.688 1115.85 458.687 1135.13 460.908C1144.95 462.031 1154.88 462.124 1165 462.686V484.435H909.611ZM336.904 456.745L332.008 474.262C331.847 475.025 331.538 475.748 331.098 476.39C330.908 476.702 330.641 476.958 330.322 477.135C330.003 477.311 329.644 477.401 329.28 477.396H298.968V407.516C298.952 406.703 299.234 405.913 299.761 405.294C300.298 404.703 300.994 404.281 301.766 404.078L310.789 401.225V396.688H268.143V401.225L276.91 404.078C277.643 404.27 278.306 404.668 278.822 405.224C279.106 405.54 279.325 405.91 279.465 406.311C279.605 406.713 279.664 407.138 279.638 407.563V475.081C279.683 475.926 279.417 476.757 278.892 477.419C278.378 478.027 277.684 478.454 276.91 478.635L268.143 481.559V486.096H342.757V456.745H336.904ZM345.392 481.395V485.932H347.49V480.506L345.392 481.395ZM433.342 478.916C432.572 478.581 431.874 478.096 431.291 477.49C430.686 476.855 430.211 476.108 429.892 475.291L398.764 395.355H388.224L380.53 410.206L355.045 475.221C354.732 476.04 354.254 476.785 353.64 477.409C353.026 478.033 352.29 478.522 351.477 478.846L347.49 480.506V485.932H374.677V481.395L363.882 477.957L372.346 455.716H402.168L411.028 478.215L400.186 481.395V485.932H439.661V481.395L433.342 478.916ZM375.517 447.367L387.012 417.151H387.758L390.37 425.758L398.88 447.367H375.517ZM455.633 486.774L431.221 407.259C430.966 406.47 430.535 405.75 429.962 405.154C429.365 404.514 428.62 404.032 427.793 403.751L421.964 401.412V396.875H461.043V401.412L450.107 404.522L465.939 456.161L467.455 462.148H467.805L483.124 413.573L489.722 397.46H500.215L518.332 455.927L520.104 462.569H520.501L538.734 405.201L527.985 401.319V396.781H557.225V401.319L551.255 404.242C550.489 404.648 549.783 405.16 549.157 405.762C548.467 406.395 547.959 407.203 547.688 408.101L526.913 471.011L520.454 486.774H508.796L492.124 432.984L489.792 424.448H489.396L474.66 470.918L468.038 486.774H455.633ZM582.873 485.885V481.395L592.596 478.472C593.371 478.278 594.07 477.854 594.601 477.256C595.151 476.605 595.435 475.769 595.394 474.917V450.478L570.981 407.259C570.545 406.501 570.046 405.781 569.489 405.107C568.931 404.424 568.197 403.907 567.367 403.61L560.815 401.272V396.735H600.71V401.272L590.101 404.382L606.423 432.821L610.434 440.585L610.946 440.398L631.022 405.107L620.809 401.225V396.688H649.769V401.225L643.287 404.148C642.524 404.527 641.837 405.042 641.258 405.668C640.653 406.309 640.122 407.015 639.673 407.773L614.7 450.033V475.081C614.64 475.928 614.907 476.765 615.447 477.419C615.969 478.012 616.661 478.429 617.429 478.612L627.268 481.535V486.073L582.873 485.885ZM651.821 485.885V481.395L660.588 478.472C661.326 478.227 661.991 477.801 662.523 477.232C662.803 476.914 663.017 476.544 663.153 476.143C663.289 475.741 663.345 475.317 663.316 474.894V407.516C663.35 407.093 663.297 406.667 663.161 406.264C663.025 405.862 662.808 405.492 662.523 405.177C662.007 404.6 661.335 404.186 660.588 403.985L651.821 401.131V396.594H725.595V420.589H719.626L714.963 407.469C714.75 406.847 714.426 406.268 714.007 405.762C713.789 405.533 713.524 405.355 713.229 405.242C712.935 405.129 712.619 405.083 712.305 405.107H682.576V435.323H700.436C700.771 435.367 701.111 435.337 701.433 435.236C701.755 435.135 702.051 434.965 702.302 434.738C702.712 434.285 703.008 433.74 703.164 433.148L707.105 422.881H712.328V456.091H707.105L703.164 445.894C702.982 445.306 702.689 444.758 702.302 444.28C702.06 444.036 701.767 443.849 701.444 443.732C701.122 443.615 700.778 443.57 700.436 443.602H682.576V477.419H717.551C717.857 477.434 718.162 477.387 718.45 477.283C718.738 477.179 719.003 477.018 719.23 476.811C719.664 476.319 719.982 475.736 720.162 475.104L724.546 460.253H730.585V485.979L651.821 485.885ZM738.629 485.885V481.395L747.396 478.472C748.119 478.208 748.772 477.785 749.308 477.232C749.592 476.916 749.811 476.547 749.951 476.145C750.091 475.744 750.15 475.318 750.124 474.894V407.516C750.163 406.66 749.871 405.822 749.308 405.177C748.792 404.621 748.129 404.223 747.396 404.031L738.629 401.178V396.641H779.807C785.584 396.487 791.354 397.156 796.944 398.629C800.721 399.61 804.249 401.379 807.297 403.821C809.596 405.716 811.357 408.184 812.404 410.977C813.321 413.536 813.794 416.233 813.802 418.952C813.955 423.155 812.894 427.313 810.748 430.926C808.832 434.059 806.223 436.708 803.123 438.667C800.328 440.502 797.291 441.935 794.1 442.924L782.441 449.683L768.451 445.847L769.034 438.831C769.718 439.065 770.434 439.191 771.156 439.205C772.369 439.346 773.651 439.439 775.003 439.509H778.104C781.159 439.632 784.169 438.735 786.662 436.96C788.886 435.252 790.61 432.973 791.652 430.365C792.745 427.686 793.308 424.818 793.307 421.922C793.307 415.959 791.885 411.609 789.087 408.873C785.748 405.944 781.388 404.463 776.962 404.756H769.407V475.081C769.354 475.919 769.602 476.749 770.107 477.419C770.593 478.02 771.266 478.44 772.019 478.612L781.672 481.535V486.073L738.629 485.885ZM831.337 485.885H809.862C807.762 485.968 805.663 485.683 803.66 485.044C802.219 484.507 800.947 483.595 799.976 482.401C798.756 480.863 797.627 479.254 796.595 477.583L777.335 447.578L794.799 441.778L816.6 473.958C817.372 475.039 818.281 476.014 819.305 476.858C820.242 477.732 821.355 478.394 822.57 478.799L831.337 481.348V485.885ZM835.067 482.307L833.995 456.699H839.964L844.86 469.187C845.141 469.882 845.562 470.511 846.096 471.035C846.592 471.556 847.139 472.026 847.728 472.438C849.748 473.715 851.888 474.788 854.117 475.642C856.521 476.622 859.001 477.404 861.532 477.981C863.607 478.507 865.734 478.798 867.874 478.846C872.255 479.055 876.556 477.612 879.929 474.8C881.41 473.573 882.597 472.028 883.405 470.28C884.212 468.531 884.617 466.624 884.592 464.697C884.67 463.221 884.448 461.744 883.938 460.357C883.429 458.97 882.644 457.702 881.631 456.628C879.137 454.34 876.211 452.575 873.027 451.437C869.75 450.167 866.403 449.089 863.001 448.209C859.664 447.37 856.385 446.315 853.185 445.052C848.326 443.175 844.115 439.925 841.06 435.697C838.109 431.511 836.573 426.487 836.676 421.361C836.611 416.403 838.195 411.565 841.176 407.61C844.334 403.472 848.48 400.199 853.231 398.091C858.402 395.719 864.031 394.522 869.716 394.583C873.207 394.585 876.695 394.788 880.162 395.191C883.613 395.589 886.901 396.103 890.025 396.711C893.149 397.319 895.924 397.998 898.372 398.723V422.881H892.52L888.02 411.188C887.767 410.524 887.359 409.93 886.831 409.457C886.357 408.969 885.842 408.523 885.292 408.124C883.856 407.126 882.286 406.338 880.628 405.785C878.649 405.103 876.623 404.563 874.566 404.172C872.787 403.79 870.975 403.587 869.157 403.564C865.234 403.321 861.377 404.65 858.431 407.259C857.263 408.278 856.32 409.531 855.662 410.936C855.003 412.341 854.644 413.869 854.607 415.421C854.534 418.37 855.444 421.259 857.195 423.63C859.668 426.441 862.912 428.458 866.522 429.43C869.739 430.552 872.887 431.511 875.965 432.33C879.388 433.291 882.752 434.454 886.038 435.814C889.017 437.044 891.817 438.673 894.362 440.655C897.015 442.739 899.2 445.361 900.774 448.35C902.503 451.748 903.353 455.528 903.246 459.341C903.217 464.258 901.803 469.066 899.165 473.21C896.193 477.875 891.932 481.572 886.901 483.851C880.169 486.831 872.849 488.239 865.496 487.967C862.092 487.96 858.694 487.694 855.33 487.172C851.809 486.634 848.335 485.956 844.907 485.09C841.48 484.225 838.215 483.336 835.067 482.354V482.307Z" fill="#C2905B"/>
</svg>
