<svg width="836" height="348" viewBox="0 0 836 348" fill="none" xmlns="http://www.w3.org/2000/svg">
<path d="M459.813 124.064C465.168 118.416 470.611 112.028 476.144 104.902C477.047 103.751 478.135 102.5 479.49 101.149C480.587 99.9227 481.981 98.998 483.539 98.464L495.034 94.8951L496.59 88.5409H445.909L444.47 94.8951L457.404 99.0311C458.04 99.2979 458.625 99.498 459.077 99.6648C459.607 99.8271 460.122 100.034 460.617 100.282C459.59 103.442 458.25 106.492 456.618 109.388C454.861 112.493 452.875 115.464 450.678 118.277C448.77 120.712 446.762 123.097 444.604 125.398L416.979 93.0105L443.332 80.5524C447.285 77.0976 450.334 72.736 452.217 67.8441C453.935 63.7188 454.887 59.3168 455.028 54.8523C455.149 52.1273 454.709 49.4065 453.737 46.8569C452.764 44.3073 451.279 41.9827 449.373 40.026C445.451 36.2127 440.637 33.4328 435.368 31.9374C429.905 30.2862 424.228 29.4433 418.519 29.4358C412.95 29.4547 407.41 30.2347 402.054 31.754C396.591 33.2364 391.403 35.5906 386.694 38.7252C382.154 41.7151 378.29 45.6176 375.35 50.1826C372.391 54.9262 370.879 60.4251 371 66.0096C370.97 69.3575 371.661 72.6728 373.024 75.7326C374.321 78.6821 375.943 81.4789 377.86 84.0714C379.711 86.573 381.452 88.7967 383.08 90.7424L385.406 93.5775L362.215 106.136C359.396 108.751 357.028 111.81 355.205 115.192C353.185 118.831 351.554 122.671 350.336 126.649C349.159 130.323 348.538 134.15 348.495 138.006C348.315 144.059 350.073 150.011 353.515 155.001C356.82 159.647 361.348 163.294 366.599 165.541C372.163 167.916 378.166 169.098 384.218 169.01C391.767 169.1 399.262 167.729 406.288 164.974C412.977 162.253 419.3 158.713 425.111 154.434C427.286 152.844 429.434 151.209 431.553 149.531L435.301 154.1C437.744 157.052 439.802 159.404 441.442 161.172C443.002 162.89 444.978 164.181 447.181 164.924C450.263 165.771 453.456 166.142 456.651 166.025H485.096L486.451 159.771L472.898 155.151C471.357 154.579 469.934 153.731 468.698 152.649C467.023 151.262 465.487 149.715 464.114 148.03L451.063 132.82C454.085 129.951 457.002 127.033 459.813 124.064ZM400.515 51.2C402.067 48.0471 404.363 45.3171 407.208 43.2448C410.043 41.1716 413.48 40.0766 416.996 40.1261C418.854 40.0009 420.714 40.3306 422.414 41.0864C424.114 41.8422 425.603 43.0012 426.751 44.4623C429.004 47.4536 430.182 51.1129 430.097 54.8523C430.242 61.473 428.337 67.9773 424.643 73.4811C421.1 78.5471 416.411 82.7118 410.956 85.6391C407.609 81.5197 404.882 77.934 402.757 74.9154C399.824 70.9729 398.203 66.214 398.122 61.3065C398.111 57.797 398.931 54.3344 400.515 51.2ZM423.94 143.126C420.092 145.671 415.938 147.722 411.575 149.23C406.925 150.796 402.042 151.563 397.135 151.499C394.42 151.621 391.712 151.129 389.214 150.061C386.716 148.992 384.494 147.374 382.712 145.328C379.125 141.156 377.212 135.811 377.341 130.318C377.323 126.279 377.961 122.263 379.232 118.427C380.464 114.726 382.204 111.213 384.402 107.987C386.288 105.19 388.539 102.655 391.095 100.449L425.412 142.142C424.944 142.459 424.375 142.793 423.94 143.126ZM0 345.458V329.915C7.26171 329.514 14.3896 329.448 21.4338 328.647C35.2712 327.063 41.9974 321.359 45.0761 307.9C46.9323 300.352 47.9479 292.622 48.1046 284.852C48.3389 208.725 48.3947 132.592 48.272 56.4534C48.272 56.1699 48.272 55.903 48.272 55.6195C47.2011 25.6 38.9522 17.2612 9.03531 16.0104L0.301177 15.6102V0.0666989H183.099V16.1772C176.289 16.1772 169.713 15.8103 163.02 16.1772C149.367 17.0778 142.072 23.065 138.658 36.1902C137.084 41.524 136.168 47.0293 135.931 52.5842C135.663 80.0521 135.797 107.62 135.797 135.655H249.575C250.086 134.84 250.432 133.933 250.596 132.987C250.311 104.385 250.596 75.7493 249.374 47.1807C248.454 25.8835 239.201 17.8283 217.701 16.3106C212.681 15.9604 207.795 15.7936 202.324 15.5268V0H385.306V15.9437C379.483 15.9437 373.727 15.7602 368.005 15.9437C351.038 16.5941 342.287 23.8488 339.644 40.6431C337.987 50.7767 337.17 61.0291 337.201 71.2964C337.536 101.533 337.536 131.819 339.627 161.955C340.982 181.418 350.67 188.323 370.213 188.489C378.83 188.573 387.464 188.489 396.851 188.489V204.366C384.753 205.817 372.572 206.734 360.609 208.836C336.682 213.022 315.332 223.846 294.367 235.52C275.343 246.143 255.883 255.85 233.479 256.75C223.272 257.151 213.032 256.75 202.257 256.75V241.307C209.519 240.89 216.647 240.707 223.741 240.006C238.264 238.572 244.388 233.002 247.601 218.759C248.32 215.789 248.839 212.775 249.157 209.736C249.743 203.065 250.077 196.511 250.562 189.206H135.245C135.245 198.446 135.145 207.285 135.245 216.124C135.663 243.608 135.245 271.16 136.918 298.544C138.424 321.676 147.744 328.831 171.085 329.097C174.934 329.097 178.799 329.097 183.166 329.097V345.458H0ZM652.734 345.458V329.281C657.101 329.281 660.966 329.281 664.814 329.281C688.156 329.014 697.492 321.859 698.981 298.728C700.755 271.343 700.286 243.792 700.654 216.307C700.805 207.468 700.654 198.629 700.654 189.39H585.421C585.906 196.695 586.241 203.316 586.826 209.92C587.144 212.958 587.664 215.973 588.382 218.942C591.595 233.185 597.719 238.755 612.242 240.19C619.337 240.89 626.465 241.073 633.726 241.49V256.934C622.951 256.934 612.711 257.267 602.504 256.934C580.1 256.033 560.674 246.327 541.616 235.703C520.651 224.029 499.301 213.155 475.374 209.019C463.411 206.918 451.23 206.001 439.133 204.55V188.673C448.536 188.673 457.153 188.673 465.787 188.673C485.313 188.506 495.018 181.601 496.356 162.139C498.448 132.003 498.448 101.716 498.782 71.4798C498.816 61.162 497.994 50.859 496.323 40.6765C493.679 23.8822 484.928 16.6275 467.979 15.9771C462.24 15.7603 456.484 15.9771 450.661 15.9771V0.0333622H633.71V15.5601C628.238 15.827 623.286 15.9937 618.333 16.344C596.832 17.8616 587.579 25.9169 586.659 47.214C585.404 75.7826 585.722 104.418 585.438 133.02C585.601 133.967 585.948 134.873 586.458 135.688H700.236C700.236 107.57 700.387 80.0854 700.102 52.6176C699.865 47.0627 698.949 41.5574 697.375 36.2236C694.029 23.1651 686.667 17.1778 673.013 16.2105C666.404 15.7769 659.761 16.2105 652.935 16.2105V0.0666989H835.699V15.5601L826.965 15.9604C797.065 17.1778 788.799 25.5166 787.728 55.5695C787.728 55.853 787.728 56.1198 787.728 56.4033C787.728 132.542 787.784 208.702 787.895 284.885C788.052 292.656 789.068 300.385 790.924 307.934C794.003 321.392 800.729 327.096 814.566 328.68C821.61 329.481 828.738 329.548 836 329.948V345.458H652.734ZM241.761 325.712L238.248 338.203C238.132 338.747 237.91 339.263 237.595 339.721C237.459 339.943 237.267 340.126 237.038 340.252C236.809 340.378 236.551 340.442 236.29 340.438H214.538V290.606C214.527 290.026 214.729 289.462 215.107 289.021C215.493 288.6 215.993 288.299 216.546 288.154L223.021 286.119V282.884H192.419V286.119L198.71 288.154C199.236 288.291 199.712 288.575 200.082 288.971C200.286 289.197 200.442 289.46 200.543 289.746C200.643 290.033 200.686 290.336 200.667 290.639V338.787C200.699 339.389 200.509 339.983 200.132 340.455C199.763 340.888 199.265 341.192 198.71 341.322L192.419 343.407V346.642H245.961V325.712H241.761ZM247.852 343.29V346.525H249.358V342.656L247.852 343.29ZM310.965 341.522C310.412 341.283 309.912 340.937 309.493 340.505C309.059 340.052 308.718 339.52 308.489 338.937L286.151 281.933H278.589L273.067 292.524L254.779 338.887C254.555 339.471 254.212 340.002 253.771 340.447C253.33 340.892 252.802 341.241 252.219 341.472L249.358 342.656V346.525H268.867V343.29L261.12 340.838L267.194 324.978H288.594L294.953 341.022L287.172 343.29V346.525H315.499V343.29L310.965 341.522ZM269.47 319.024L277.719 297.477H278.254L280.128 303.614L286.235 319.024H269.47ZM326.961 347.126L309.442 290.422C309.26 289.86 308.951 289.347 308.539 288.921C308.111 288.465 307.576 288.121 306.983 287.921L302.8 286.253V283.017H330.843V286.253L322.995 288.471L334.356 325.295L335.444 329.564H335.695L346.688 294.925L351.423 283.434H358.953L371.953 325.128L373.225 329.865H373.509L386.594 288.955L378.88 286.186V282.951H399.862V286.186L395.579 288.271C395.029 288.561 394.522 288.926 394.073 289.355C393.578 289.806 393.214 290.382 393.019 291.023L378.111 335.885L373.476 347.126H365.11L353.147 308.768L351.473 302.68H351.189L340.614 335.818L335.862 347.126H326.961ZM418.268 346.492V343.29L425.245 341.205C425.801 341.067 426.303 340.765 426.684 340.338C427.079 339.874 427.282 339.278 427.253 338.67V321.242L409.734 290.422C409.421 289.882 409.063 289.368 408.664 288.888C408.263 288.401 407.736 288.032 407.141 287.821L402.439 286.153V282.917H431.068V286.153L423.455 288.371L435.167 308.651L438.045 314.188L438.413 314.054L452.819 288.888L445.491 286.119V282.884H466.272V286.119L461.62 288.204C461.073 288.474 460.58 288.842 460.165 289.288C459.731 289.745 459.349 290.248 459.027 290.789L441.107 320.925V338.787C441.063 339.391 441.255 339.988 441.642 340.455C442.017 340.878 442.514 341.175 443.065 341.305L450.126 343.39V346.625L418.268 346.492ZM467.744 346.492V343.29L474.036 341.205C474.565 341.031 475.043 340.727 475.424 340.321C475.625 340.095 475.779 339.831 475.877 339.544C475.974 339.258 476.014 338.955 475.993 338.654V290.606C476.018 290.304 475.98 290 475.882 289.713C475.784 289.426 475.628 289.162 475.424 288.938C475.054 288.526 474.571 288.231 474.036 288.087L467.744 286.053V282.817H520.685V299.928H516.401L513.055 290.572C512.902 290.128 512.67 289.716 512.369 289.355C512.213 289.191 512.022 289.065 511.811 288.984C511.6 288.903 511.373 288.87 511.147 288.888H489.814V310.435H502.631C502.871 310.466 503.115 310.445 503.346 310.373C503.577 310.301 503.79 310.18 503.969 310.018C504.264 309.695 504.476 309.306 504.588 308.884L507.416 301.563H511.164V325.245H507.416L504.588 317.973C504.457 317.554 504.247 317.164 503.969 316.823C503.796 316.649 503.586 316.516 503.354 316.432C503.123 316.348 502.876 316.317 502.631 316.339H489.814V340.455H514.912C515.132 340.465 515.351 340.432 515.558 340.357C515.764 340.283 515.954 340.169 516.117 340.021C516.428 339.67 516.657 339.254 516.786 338.804L519.932 328.214H524.265V346.559L467.744 346.492ZM530.038 346.492V343.29L536.329 341.205C536.847 341.017 537.316 340.715 537.701 340.321C537.905 340.096 538.062 339.833 538.162 339.546C538.263 339.26 538.305 338.956 538.287 338.654V290.606C538.315 289.995 538.105 289.398 537.701 288.938C537.331 288.541 536.855 288.258 536.329 288.121L530.038 286.086V282.851H559.587C563.733 282.741 567.873 283.218 571.885 284.268C574.595 284.968 577.126 286.229 579.314 287.971C580.963 289.322 582.227 291.082 582.978 293.074C583.636 294.899 583.976 296.822 583.982 298.761C584.091 301.758 583.33 304.723 581.79 307.3C580.415 309.534 578.543 311.423 576.319 312.82C574.313 314.128 572.133 315.15 569.843 315.855L561.477 320.675L551.438 317.94L551.856 312.937C552.347 313.104 552.861 313.194 553.379 313.204C554.249 313.304 555.169 313.371 556.14 313.421H558.365C560.557 313.508 562.717 312.869 564.506 311.603C566.102 310.385 567.339 308.76 568.086 306.9C568.871 304.989 569.275 302.944 569.274 300.879C569.274 296.626 568.254 293.524 566.246 291.573C563.85 289.484 560.721 288.429 557.545 288.638H552.124V338.787C552.086 339.385 552.264 339.977 552.626 340.455C552.975 340.883 553.458 341.183 553.998 341.305L560.925 343.39V346.625L530.038 346.492ZM596.564 346.492H581.154C579.647 346.551 578.141 346.348 576.703 345.892C575.67 345.509 574.757 344.859 574.06 344.007C573.184 342.91 572.374 341.763 571.634 340.572L557.813 319.174L570.345 315.038L585.99 337.987C586.543 338.757 587.196 339.453 587.931 340.055C588.603 340.678 589.402 341.15 590.273 341.439L596.564 343.257V346.492ZM599.242 343.94L598.472 325.679H602.755L606.269 334.584C606.471 335.08 606.772 335.528 607.156 335.902C607.512 336.274 607.904 336.609 608.327 336.902C609.776 337.813 611.312 338.578 612.912 339.187C614.637 339.886 616.416 340.444 618.232 340.855C619.721 341.231 621.248 341.438 622.784 341.472C625.927 341.621 629.013 340.592 631.434 338.587C632.497 337.712 633.349 336.61 633.928 335.363C634.507 334.117 634.798 332.756 634.78 331.382C634.836 330.33 634.677 329.277 634.311 328.288C633.946 327.299 633.383 326.394 632.655 325.628C630.865 323.997 628.766 322.738 626.481 321.926C624.13 321.02 621.728 320.252 619.286 319.625C616.892 319.026 614.539 318.274 612.242 317.373C608.756 316.034 605.734 313.717 603.542 310.702C601.424 307.717 600.322 304.134 600.396 300.479C600.349 296.943 601.486 293.493 603.625 290.672C605.891 287.722 608.866 285.388 612.276 283.885C615.986 282.193 620.026 281.339 624.105 281.383C626.61 281.385 629.113 281.529 631.601 281.817C634.078 282.1 636.437 282.467 638.679 282.901C640.921 283.334 642.912 283.818 644.669 284.335V301.563H640.469L637.24 293.224C637.059 292.751 636.766 292.327 636.387 291.99C636.047 291.642 635.677 291.324 635.282 291.039C634.252 290.327 633.125 289.766 631.936 289.372C630.515 288.885 629.062 288.5 627.586 288.221C626.309 287.949 625.009 287.804 623.704 287.787C620.889 287.614 618.121 288.562 616.007 290.422C615.169 291.149 614.492 292.042 614.02 293.044C613.548 294.047 613.29 295.136 613.263 296.243C613.21 298.346 613.864 300.406 615.12 302.097C616.895 304.101 619.223 305.54 621.813 306.233C624.122 307.033 626.381 307.717 628.59 308.301C631.046 308.986 633.46 309.816 635.818 310.785C637.956 311.663 639.965 312.824 641.791 314.238C643.695 315.724 645.263 317.593 646.392 319.725C647.633 322.148 648.243 324.843 648.166 327.563C648.146 331.069 647.131 334.498 645.238 337.453C643.105 340.78 640.047 343.416 636.437 345.041C631.606 347.167 626.354 348.17 621.077 347.976C618.634 347.971 616.196 347.782 613.782 347.409C611.255 347.026 608.762 346.542 606.302 345.925C603.843 345.308 601.5 344.674 599.242 343.974V343.94Z" fill="white"/>
</svg>
